<?xml version="1.0" encoding="UTF-8" standalone="no"?>
<!-- Created with Inkscape (http://www.inkscape.org/) -->

<svg
   xmlns:dc="http://purl.org/dc/elements/1.1/"
   xmlns:cc="http://creativecommons.org/ns#"
   xmlns:rdf="http://www.w3.org/1999/02/22-rdf-syntax-ns#"
   xmlns:svg="http://www.w3.org/2000/svg"
   xmlns="http://www.w3.org/2000/svg"
   xmlns:sodipodi="http://sodipodi.sourceforge.net/DTD/sodipodi-0.dtd"
   xmlns:inkscape="http://www.inkscape.org/namespaces/inkscape"
   width="13.546667mm"
   height="13.546667mm"
   viewBox="0 0 48.000002 48.000001"
   id="svg2"
   version="1.1"
   sodipodi:docname="ic_action_group.svg">
  <defs
     id="defs4" />
  <sodipodi:namedview
     id="base"
     pagecolor="#ffddff"
     bordercolor="#666666"
     borderopacity="1.0"
     inkscape:pageopacity="0"
     inkscape:pageshadow="2"
     inkscape:zoom="12.492219"
     inkscape:cx="30.465356"
     inkscape:cy="23.299911"
     inkscape:document-units="px"
     inkscape:current-layer="layer1"
     showgrid="true"
     inkscape:snap-bbox="true"
     inkscape:bbox-paths="true"
     inkscape:bbox-nodes="true"
     inkscape:snap-bbox-edge-midpoints="true"
     inkscape:snap-bbox-midpoints="true"
     showguides="true"
     inkscape:guide-bbox="true"
     fit-margin-top="0"
     fit-margin-left="0"
     fit-margin-right="0"
     fit-margin-bottom="0"
     inkscape:window-width="1918"
     inkscape:window-height="1020"
     inkscape:window-x="0"
     inkscape:window-y="32"
     inkscape:window-maximized="1">
    <sodipodi:guide
       position="14.000001,13.999996"
       orientation="1,0"
       id="guide4384" />
    <inkscape:grid
       type="xygrid"
       id="grid4386"
       originx="0"
       originy="-4.7244097e-06" />
    <sodipodi:guide
       position="14.000001,13.999996"
       orientation="0,1"
       id="guide4388" />
    <sodipodi:guide
       position="34.000001,27.999996"
       orientation="0,1"
       id="guide4390" />
    <sodipodi:guide
       position="34.000001,27.999996"
       orientation="1,0"
       id="guide4392" />
  </sodipodi:namedview>
  <metadata
     id="metadata7">
    <rdf:RDF>
      <cc:Work
         rdf:about="">
        <dc:format>image/svg+xml</dc:format>
        <dc:type
           rdf:resource="http://purl.org/dc/dcmitype/StillImage" />
        <dc:title></dc:title>
        <dc:title />
      </cc:Work>
    </rdf:RDF>
  </metadata>
  <g
     inkscape:label="Layer 1"
     inkscape:groupmode="layer"
     id="layer1"
     transform="translate(0,-1004.3622)">
    <path
       id="path4237"
       d="m 27.636365,1030.3625 c -0.263637,0 -0.559091,0.027 -0.877273,0.073 1.054546,1.1132 1.786364,2.6131 1.786364,4.5929 l 0,3.3334 5.454546,0 0,-3.3334 c 0,-3.1064 -4.240911,-4.6665 -6.363636,-4.6665 z m -7.136364,-3e-4 c -2.168214,0 -6.5,1.56 -6.5,4.6665 l 0,3.3335 13.000001,0 0,-3.3335 c 0,-3.1065 -4.331786,-4.6665 -6.500001,-4.6665 z m 0.0042,-1 c 1.381468,0 2.495826,-1.1208 2.495826,-2.5 0,-1.3791 -1.114358,-2.5 -2.495826,-2.5 -1.381469,0 -2.504174,1.1209 -2.504174,2.5 0,1.3792 1.122705,2.5 2.504174,2.5 z m 7.000001,0 c 1.381469,0 2.495826,-1.1208 2.495826,-2.5 0,-1.3791 -1.114357,-2.5 -2.495826,-2.5 -1.38147,0 -2.504174,1.1209 -2.504174,2.5 0,1.3792 1.122704,2.5 2.504174,2.5 z"
       style="fill:#ffffff;fill-opacity:1" />
    <path
       style="fill:none"
       inkscape:connector-curvature="0"
       d="m 0,1004.3622 48,0 0,48 -48,0 z"
       id="path4352" />
    <path
       inkscape:connector-curvature="0"
       d="m 38,1010.3622 -2,0 0,-4 -4,0 0,4 -16,0 0,-4 -4,0 0,4 -2,0 c -2.21,0 -3.98,1.79 -3.98,4 l -0.02,28 c 0,2.21 1.79,4 4,4 l 28,0 c 2.21,0 4,-1.79 4,-4 l 0,-28 c 0,-2.21 -1.79,-4 -4,-4 z m 0,32 -28,0 0,-22 28,0 z"
       id="path4354"
       sodipodi:nodetypes="sccccccccsccsssssccccc"
       style="fill:#ffffff;fill-opacity:1" />
    <path
       inkscape:connector-curvature="0"
       d="m 57.55555,1017.28 0,3.1111 5.444449,2.9711 5.444448,-2.9711 0,-3.1111 -5.444448,2.9711 -5.444449,-2.9711 z m 5.444449,-7.9178 -8.555556,4.6667 8.555556,4.6666 7,-3.8188 0,5.3744 1.555565,0 0,-6.2222 -8.555565,-4.6667 z"
       id="path4370"
       style="fill:#ffffff;fill-opacity:1" />
  </g>
</svg>
