<?xml version="1.0" encoding="UTF-8" standalone="no"?>
<!-- Created with Inkscape (http://www.inkscape.org/) -->

<svg
   xmlns:dc="http://purl.org/dc/elements/1.1/"
   xmlns:cc="http://creativecommons.org/ns#"
   xmlns:rdf="http://www.w3.org/1999/02/22-rdf-syntax-ns#"
   xmlns:svg="http://www.w3.org/2000/svg"
   xmlns="http://www.w3.org/2000/svg"
   xmlns:sodipodi="http://sodipodi.sourceforge.net/DTD/sodipodi-0.dtd"
   xmlns:inkscape="http://www.inkscape.org/namespaces/inkscape"
   width="13.546667mm"
   height="13.546667mm"
   viewBox="0 0 48.000002 48.000001"
   id="svg2"
   version="1.1"
   sodipodi:docname="ic_action_teacher.svg">
  <defs
     id="defs4" />
  <sodipodi:namedview
     id="base"
     pagecolor="#ffffff"
     bordercolor="#666666"
     borderopacity="1.0"
     inkscape:pageopacity="0.0"
     inkscape:pageshadow="2"
     inkscape:zoom="12.026894"
     inkscape:cx="35.509687"
     inkscape:cy="30.403616"
     inkscape:document-units="px"
     inkscape:current-layer="layer1"
     showgrid="true"
     inkscape:snap-bbox="true"
     inkscape:bbox-paths="true"
     inkscape:bbox-nodes="true"
     inkscape:snap-bbox-edge-midpoints="true"
     inkscape:snap-bbox-midpoints="true"
     showguides="true"
     inkscape:guide-bbox="true"
     fit-margin-top="0"
     fit-margin-left="0"
     fit-margin-right="0"
     fit-margin-bottom="0"
     inkscape:window-width="1918"
     inkscape:window-height="1020"
     inkscape:window-x="0"
     inkscape:window-y="32"
     inkscape:window-maximized="0">
    <sodipodi:guide
       position="14.000001,13.999996"
       orientation="1,0"
       id="guide4384" />
    <inkscape:grid
       type="xygrid"
       id="grid4386"
       originx="0"
       originy="-4.7244097e-06" />
    <sodipodi:guide
       position="14.000001,13.999996"
       orientation="0,1"
       id="guide4388" />
    <sodipodi:guide
       position="34.000001,27.999996"
       orientation="0,1"
       id="guide4390" />
    <sodipodi:guide
       position="34.000001,27.999996"
       orientation="1,0"
       id="guide4392" />
  </sodipodi:namedview>
  <metadata
     id="metadata7">
    <rdf:RDF>
      <cc:Work
         rdf:about="">
        <dc:format>image/svg+xml</dc:format>
        <dc:type
           rdf:resource="http://purl.org/dc/dcmitype/StillImage" />
        <dc:title></dc:title>
        <dc:title></dc:title>
      </cc:Work>
    </rdf:RDF>
  </metadata>
  <g
     inkscape:label="Layer 1"
     inkscape:groupmode="layer"
     id="layer1"
     transform="translate(0,-1004.3622)">
    <path
       inkscape:connector-curvature="0"
       d="m 92.857148,1029.5051 c 1.418571,0 2.562857,-1.1529 2.562857,-2.5715 0,-1.4185 -1.144286,-2.5714 -2.562857,-2.5714 -1.418572,0 -2.571429,1.1529 -2.571429,2.5714 0,1.4186 1.152857,2.5715 2.571429,2.5715 z m -6.857143,0 c 1.418571,0 2.562857,-1.1529 2.562857,-2.5715 0,-1.4185 -1.144286,-2.5714 -2.562857,-2.5714 -1.418571,0 -2.571429,1.1529 -2.571429,2.5714 0,1.4186 1.152858,2.5715 2.571429,2.5715 z m 0,1.7142 c -2.001429,0 -6,1.0029 -6,3 l 0,2.1429 12,0 0,-2.1429 c 0,-1.9971 -3.998571,-3 -6,-3 z m 6.857143,0 c -0.248572,0 -0.527143,0.017 -0.827143,0.047 0.994286,0.7157 1.684286,1.68 1.684286,2.9528 l 0,2.1429 5.142858,0 0,-2.1429 c 0,-1.9971 -3.998573,-3 -6,-3 z"
       id="path4237" />
    <path
       style="fill:none"
       inkscape:connector-curvature="0"
       d="m 0,1004.3622 48,0 0,48 -48,0 z"
       id="path4352" />
    <path
       inkscape:connector-curvature="0"
       d="m 38,1010.3622 -2,0 0,-4 -4,0 0,4 -16,0 0,-4 -4,0 0,4 -2,0 c -2.21,0 -3.98,1.79 -3.98,4 l -0.02,28 c 0,2.21 1.79,4 4,4 l 28,0 c 2.21,0 4,-1.79 4,-4 l 0,-28 c 0,-2.21 -1.79,-4 -4,-4 z m 0,32 -28,0 0,-22 28,0 z"
       id="path4354"
       sodipodi:nodetypes="sccccccccsccsssssccccc" />
    <path
       inkscape:connector-curvature="0"
       d="m 18.555548,1032.28 0,3.1111 5.444449,2.9711 5.444448,-2.9711 0,-3.1111 -5.444448,2.9711 -5.444449,-2.9711 z m 5.444449,-7.9178 -8.555556,4.6667 8.555556,4.6666 7,-3.8188 0,5.3744 1.555565,0 0,-6.2222 -8.555565,-4.6667 z"
       id="path4370" />
  </g>
</svg>
